# xmcd
#
# Track frame offsets:
#	150
#	27148
#	57919
#	79570
#	102174
#	123319
#	153027
#	174422
#	197658
#	220201
#
# Disc length: 3189 seconds
#
# Revision: 1
# Processed by: cddbd v1.5.2PL0 Copyright (c) Steve Scherf et al.
# Submitted via: EZCDAudioConverter 8.0.2.1
#
DISCID=740c730a
DTITLE=Mạnh Quỳnh - Tình Nghèo
DYEAR=2011
DGENRE=
TTITLE0=Tình Nghèo
TTITLE1=Nhẫn cỏ cho em 3
TTITLE2=Nhớ nhau hoài
TTITLE3=Dù anh nghèo
TTITLE4=Thuở ấy có em
TTITLE5=Đôi mắt người xưa
TTITLE6=Hạnh phúc đơn sơ 2
TTITLE7=Nhớ người yêu
TTITLE8=20 năm tình vẫn đẹp
TTITLE9=Bạc trắng lửa hồng
EXTD=
EXTT0=
EXTT1=
EXTT2=
EXTT3=
EXTT4=
EXTT5=
EXTT6=
EXTT7=
EXTT8=
EXTT9=
PLAYORDER=
